<svg xmlns="http://www.w3.org/2000/svg" viewBox="0 0 64 64" id="FarmHouse"><circle cx="14" cy="14" r="6" fill="#f7ae49" class="color78b9eb svgShape"></circle><rect width="60" height="4" x="2" y="57" fill="#f7ae49" class="color78b9eb svgShape"></rect><path fill="#f7ae49" d="M43 30L30 34.06V57h6V43H50V57h6V34.06zm6 9H37V36H49zM61 19a2.006 2.006 0 0 1-2 2H50a2 2 0 0 1 0-4 2.061 2.061 0 0 1 .26.03A2.007 2.007 0 0 1 52 16a1.986 1.986 0 0 1 1.08.32A3 3 0 0 1 59 17 2.006 2.006 0 0 1 61 19z" class="color78b9eb svgShape"></path><rect width="60" height="2" x="2" y="60" fill="#01090c" class="color006df0 svgShape"></rect><path fill="#01090c" d="M57,56V35.42l1.7.53A1.047,1.047,0,0,0,59,36a1.036,1.036,0,0,0,.59-.19A1,1,0,0,0,60,35V31a.987.987,0,0,0-.7-.95l-16-5a.883.883,0,0,0-.6,0l-16,5A.987.987,0,0,0,26,31v4a.992.992,0,0,0,1.3.95l1.7-.53V56H24V54a1,1,0,0,0-1-1H22V46.41l3.71-3.7-1.42-1.42-11,11,1.42,1.42L20,48.41V53H18a1,1,0,0,0-1,1v2H13V54a1,1,0,0,0-1-1H11V46.41l3.71-3.7-1.42-1.42-11,11,1.42,1.42L9,48.41V53H7a1,1,0,0,0-1,1v2H2v2H62V56ZM11,56H8V55h3Zm11,0H19V55h3Zm6-22.36v-1.9l15-4.69,15,4.69v1.9L43.3,29.05a.925.925,0,0,0-.6,0ZM41.59,50,37,54.59V45.41Zm-3.18-6h9.18L43,48.59Zm0,12L43,51.41,47.59,56ZM49,54.59,44.41,50,49,45.41ZM55,56H51V43a1,1,0,0,0-1-1H36a1,1,0,0,0-1,1V56H31V34.8l12-3.75L55,34.8Z" class="color006df0 svgShape"></path><path fill="#01090c" d="M49 35H37a1 1 0 0 0-1 1v3a1 1 0 0 0 1 1H49a1 1 0 0 0 1-1V36A1 1 0 0 0 49 35zm-9 3H38V37h2zm4 0H42V37h2zm4 0H46V37h2zM14 21a7 7 0 1 0-7-7A7.008 7.008 0 0 0 14 21zM14 9a5 5 0 1 1-5 5A5.006 5.006 0 0 1 14 9z" class="color006df0 svgShape"></path><rect width="2" height="3" x="13" y="2" fill="#01090c" class="color006df0 svgShape"></rect><rect width="2" height="3" x="5.576" y="5.075" fill="#01090c" transform="rotate(-45 6.575 6.576)" class="color006df0 svgShape"></rect><rect width="3" height="2" x="2" y="13" fill="#01090c" class="color006df0 svgShape"></rect><rect width="3" height="2" x="5.075" y="20.425" fill="#01090c" transform="rotate(-45 6.576 21.425)" class="color006df0 svgShape"></rect><rect width="2" height="3" x="13" y="23" fill="#01090c" class="color006df0 svgShape"></rect><rect width="2" height="3" x="20.425" y="19.924" fill="#01090c" transform="rotate(-45 21.425 21.424)" class="color006df0 svgShape"></rect><rect width="3" height="2" x="23" y="13" fill="#01090c" class="color006df0 svgShape"></rect><rect width="3" height="2" x="19.924" y="5.576" fill="#01090c" transform="rotate(-45 21.424 6.575)" class="color006df0 svgShape"></rect><path fill="#01090c" d="M47.87 5a4 4 0 0 0-7.74 0 4.028 4.028 0 0 0-3.62 2.04A4.379 4.379 0 0 0 36 7a3 3 0 0 0 0 6H48a4 4 0 1 0-.13-8zM48 11H36a1 1 0 0 1 0-2 1.032 1.032 0 0 1 .54.16 1 1 0 0 0 1.52-.61A1.989 1.989 0 0 1 40 7a1.9 1.9 0 0 1 .68.13 1.018 1.018 0 0 0 .94-.14 1 1 0 0 0 .4-.86c0-.03-.02-.1-.02-.13a2 2 0 0 1 4-.03c0 .03-.02.13-.02.16a1 1 0 0 0 .4.86 1.022 1.022 0 0 0 .94.14A1.9 1.9 0 0 1 48 7a2 2 0 0 1 0 4zM49.767 16.009A3 3 0 0 0 50 22h9a3 3 0 0 0 .907-5.86 4 4 0 0 0-7.394-1.1A3.042 3.042 0 0 0 49.767 16.009zm2.773 1.153a1 1 0 0 0 1.518-.614A2 2 0 0 1 58 17a1 1 0 0 0 1 1 1 1 0 0 1 0 2H50a1 1 0 0 1-.006-2l.141.018a1.013 1.013 0 0 0 1-.5A1 1 0 0 1 52.54 17.162z" class="color006df0 svgShape"></path></svg>